<!DOCTYPE svg PUBLIC "-//W3C//DTD SVG 1.1//EN" "http://www.w3.org/Graphics/SVG/1.1/DTD/svg11.dtd">
<!-- Uploaded to: SVG Repo, www.svgrepo.com, Transformed by: SVG Repo Mixer Tools -->
<svg width="256px" height="256px" viewBox="-1.65 -1.65 18.30 18.30" fill="none" xmlns="http://www.w3.org/2000/svg" stroke="#000000" stroke-width="1.065">
<g id="SVGRepo_bgCarrier" stroke-width="0" transform="translate(0,0), scale(1)">
<rect x="-1.65" y="-1.65" width="18.30" height="18.30" rx="4.026" fill="#FFC107" strokewidth="0"/>
</g>
<g id="SVGRepo_tracerCarrier" stroke-linecap="round" stroke-linejoin="round" stroke="#CCCCCC" stroke-width="0.24"/>
<g id="SVGRepo_iconCarrier"> <path d="M6 5.5H9M7.5 5.5V10M10.5 10V7.5M10.5 7.5V5.5H11.5C12.0523 5.5 12.5 5.94772 12.5 6.5C12.5 7.05228 12.0523 7.5 11.5 7.5H10.5ZM4.5 6.5V8.5C4.5 9.05228 4.05228 9.5 3.5 9.5C2.94772 9.5 2.5 9.05228 2.5 8.5V6.5C2.5 5.94772 2.94772 5.5 3.5 5.5C4.05228 5.5 4.5 5.94772 4.5 6.5ZM1.5 0.5H13.5C14.0523 0.5 14.5 0.947715 14.5 1.5V13.5C14.5 14.0523 14.0523 14.5 13.5 14.5H1.5C0.947716 14.5 0.5 14.0523 0.5 13.5V1.5C0.5 0.947716 0.947715 0.5 1.5 0.5Z" stroke="#000000"/> </g>
</svg>